<svg xmlns="http://www.w3.org/2000/svg" xmlns:xlink="http://www.w3.org/1999/xlink" fill="none" version="1.1" width="64" height="64" viewBox="0 0 64 64"><defs><linearGradient x1="0.5" y1="0" x2="0.5" y2="1" id="master_svg0_2_0254"><stop offset="0%" stop-color="#4DB1FF" stop-opacity="1"/><stop offset="100%" stop-color="#1375ED" stop-opacity="1"/></linearGradient></defs><g><g><ellipse cx="32" cy="32" rx="32" ry="32" fill="url(#master_svg0_2_0254)" fill-opacity="1"/></g><g><g><rect x="14" y="14" width="36" height="36" rx="0" fill="#FFFFFF" fill-opacity="0.009999999776482582" style="mix-blend-mode:passthrough"/></g><g></g><g><path d="M47.7437,26.558799999999998L33.743700000000004,16.5588C32.7006,15.813734,31.2994,15.813734,30.2563,16.5588L16.25629,26.558799999999998C15.467897,27.1219,15,28.031100000000002,15,29L15,44C15,45.6569,16.34315,47,18,47L46,47C47.6569,47,49,45.6569,49,44L49,29C49,28.031100000000002,48.5321,27.1219,47.7437,26.558799999999998ZM32,22.686709999999998L21,30.5439L21,41L28,41L28,37C28,34.7909,29.7909,33,32,33C34.2091,33,36,34.7909,36,37L36,41L43,41L43,30.5439L32,22.686709999999998Z" fill-rule="evenodd" fill="#FFFFFF" fill-opacity="1"/></g></g></g></svg>