<svg xmlns="http://www.w3.org/2000/svg" xmlns:xlink="http://www.w3.org/1999/xlink" fill="none" version="1.1" width="24" height="24" viewBox="0 0 24 24"><g><g><g><path d="M0,20L0,4C0,1.79086,1.79086,0,4,0L20,0C22.2091,0,24,1.79086,24,4L24,20C24,22.2091,22.2091,24,20,24L4,24C1.79086,24,0,22.2091,0,20ZM3,20Q3,20.4142,3.29289,20.7071Q3.58579,21,4,21L20,21Q21,21,21,20L21,4Q21,3,20,3L4,3Q3.58579,3,3.29289,3.29289Q3,3.58579,3,4L3,20Z" fill-rule="evenodd" fill="#2689F3" fill-opacity="1"/></g></g></g></svg>