<svg xmlns="http://www.w3.org/2000/svg" xmlns:xlink="http://www.w3.org/1999/xlink" fill="none" version="1.1" width="48" height="48" viewBox="0 0 48 48"><g><g></g><g><g><ellipse cx="23.873685836791992" cy="25.192434549331665" rx="21.47368621826172" ry="21.473684310913086" fill="#AC3A31" fill-opacity="1"/></g><g><ellipse cx="23.873685836791992" cy="22.80701780319214" rx="21.47368621826172" ry="21.473684310913086" fill="#E65348" fill-opacity="1"/></g><g transform="matrix(0.7071067690849304,0.7071067690849304,-0.7071067690849304,0.7071067690849304,12.66156801277279,-14.536477414278892)"><g><path d="M23.877864837646484,17.559485912322998L23.877864837646484,22.331415912323L47.737464837646485,22.331415912323L47.737464837646485,17.559485912322998L23.877864837646484,17.559485912322998Z" fill="#AC3A31" fill-opacity="1"/></g><g transform="matrix(0,1,-1,0,46.209280490875244,-30.178029537200928)"><path d="M38.193655014038086,8.015625476837158L38.193655014038086,12.78755547683716L62.053255014038086,12.78755547683716L62.053255014038086,8.015625476837158L38.193655014038086,8.015625476837158Z" fill="#AC3A31" fill-opacity="1"/></g></g><g transform="matrix(0.7071067690849304,0.7071067690849304,-0.7071067690849304,0.7071067690849304,11.186139895404835,-15.141147699597354)"><g><path d="M33.41624233764648,15.47615103088379L33.41624233764648,5.932291030883789L38.188152337646486,5.932291030883789L38.188152337646486,15.47615103088379L47.73205233764648,15.47615103088379L47.73205233764648,20.24809103088379L38.188152337646486,20.24809103088379L38.188152337646486,29.79189103088379L33.41624233764648,29.79189103088379L33.41624233764648,20.24809103088379L23.872382377646485,20.24809103088379L23.872382377646485,15.47615103088379L33.41624233764648,15.47615103088379Z" fill-rule="evenodd" fill="#FAFBFF" fill-opacity="1"/></g></g></g></g></svg>