<?xml version="1.0" ?><!DOCTYPE svg  PUBLIC '-//W3C//DTD SVG 1.1//EN'  'http://www.w3.org/Graphics/SVG/1.1/DTD/svg11.dtd'><svg id="Layer_1" style="enable-background:new 0 0 75 75;" version="1.1" viewBox="0 0 75 75" xml:space="preserve" xmlns="http://www.w3.org/2000/svg" xmlns:xlink="http://www.w3.org/1999/xlink"><style type="text/css">
	.st0{fill:#EC008C;}
	.st1{fill:#FFFFFF;}
	.st2{fill:#00AAAD;}
	.st3{fill:#F9A01B;}
	.st4{fill:#B2D235;}
</style><g><path class="st2" d="M62.5,73.5h-50c-6.1,0-11-4.9-11-11v-50c0-6.1,4.9-11,11-11h50c6.1,0,11,4.9,11,11v50   C73.5,68.6,68.6,73.5,62.5,73.5z"/><g><path class="st1" d="M37.5,20C27.9,20,20,27.9,20,37.5S27.9,55,37.5,55S55,47.1,55,37.5S47.1,20,37.5,20z M32.5,22.6    c-1.4,1.6-2.6,3.9-3.4,6.6c-1.5-0.4-2.8-0.9-3.9-1.4C27,25.4,29.6,23.6,32.5,22.6z M24.1,29.2c1.3,0.7,2.8,1.3,4.5,1.7    c-0.4,1.8-0.6,3.7-0.7,5.7h-6.2C22,33.9,22.8,31.4,24.1,29.2z M24.1,45.8c-1.4-2.2-2.2-4.7-2.3-7.4H28c0.1,2,0.3,3.9,0.7,5.7    C27,44.5,25.4,45.1,24.1,45.8z M25.2,47.2c1.1-0.6,2.5-1.1,3.9-1.5c0.8,2.7,1.9,5,3.4,6.6C29.6,51.4,27,49.6,25.2,47.2z     M36.6,53.1c-2.4-0.6-4.6-3.6-5.8-7.7c1.8-0.3,3.7-0.5,5.8-0.6V53.1z M36.6,43c-2.2,0-4.3,0.3-6.2,0.7c-0.4-1.7-0.6-3.4-0.6-5.3    h6.8V43z M36.6,36.6h-6.8c0.1-1.9,0.3-3.7,0.6-5.3c1.9,0.4,4,0.6,6.2,0.7V36.6z M36.6,30.2c-2,0-4-0.3-5.8-0.6    c1.2-4.2,3.3-7.1,5.8-7.7V30.2z M50.9,29.2c1.4,2.2,2.2,4.7,2.3,7.4H47c-0.1-2-0.3-3.9-0.7-5.7C48,30.5,49.6,29.9,50.9,29.2z     M49.8,27.8c-1.1,0.6-2.5,1.1-3.9,1.4c-0.8-2.7-1.9-5-3.4-6.6C45.4,23.6,48,25.4,49.8,27.8z M38.4,21.9c2.4,0.6,4.6,3.6,5.8,7.7    c-1.8,0.3-3.7,0.5-5.8,0.6V21.9z M38.4,32c2.2,0,4.3-0.3,6.2-0.7c0.4,1.7,0.6,3.4,0.6,5.3h-6.8V32z M38.4,38.4h6.8    c-0.1,1.9-0.3,3.7-0.6,5.3c-1.9-0.4-4-0.6-6.2-0.7V38.4z M38.4,53.1v-8.3c2,0,4,0.3,5.8,0.6C42.9,49.5,40.8,52.5,38.4,53.1z     M42.5,52.4c1.4-1.6,2.6-3.9,3.4-6.6c1.5,0.4,2.8,0.9,3.9,1.5C48,49.6,45.4,51.4,42.5,52.4z M50.9,45.8c-1.3-0.7-2.8-1.3-4.5-1.7    c0.4-1.8,0.6-3.7,0.7-5.7h6.2C53,41.1,52.2,43.6,50.9,45.8z"/></g></g></svg>