<?xml version="1.0" ?><svg enable-background="new 0 0 512 512" id="Layer_1" version="1.1" viewBox="0 0 512 512" xml:space="preserve" xmlns="http://www.w3.org/2000/svg" xmlns:xlink="http://www.w3.org/1999/xlink"><g><g><linearGradient gradientUnits="userSpaceOnUse" id="SVGID_1_" x1="-0.0000027" x2="512" y1="256" y2="256"><stop offset="0" style="stop-color:#F67950"/><stop offset="1" style="stop-color:#F15A29"/></linearGradient><circle cx="256" cy="256" fill="url(#SVGID_1_)" r="256"/><linearGradient gradientUnits="userSpaceOnUse" id="SVGID_2_" x1="42.6666641" x2="469.3333435" y1="256.0005188" y2="256.0005188"><stop offset="0" style="stop-color:#F15A29"/><stop offset="1" style="stop-color:#F67950"/></linearGradient><path d="M256,469.3338623c-117.6314697,0-213.3333435-95.7018738-213.3333435-213.3333435    c0-117.6309204,95.7018661-213.333313,213.3333435-213.333313c117.636261,0,213.3333435,95.7024002,213.3333435,213.333313    C469.3333435,373.6319885,373.636261,469.3338623,256,469.3338623z" fill="url(#SVGID_2_)"/></g><g><path d="M269.0050049,149.340271v59.6463928c15.2044983-0.6495972,29.8504639-4.2250671,43.3416748-10.4815979    C302.4394531,171.2911987,286.6939697,152.3770599,269.0050049,149.340271z" opacity="0.3"/><path d="M206.3880005,193.6911926c8.0370178-21.7306671,19.7720032-38.4405212,33.7075043-47.4319916    c-21.8750305,4.4176025-41.5890045,14.7818604-57.3989716,29.328537    C189.8650055,182.740799,197.8579712,188.7370605,206.3880005,193.6911926z" opacity="0.3"/><path d="M287.9035339,146.259201c13.9343262,8.9909363,25.669281,25.7002716,33.7071228,47.4288025    c8.5312195-4.9541321,16.5317383-10.939209,23.701355-18.0917358    C329.4997253,161.0453339,309.7834778,150.6773376,287.9035339,146.259201z" opacity="0.3"/><path d="M212.394989,319.5343933c14.5229797-6.5797119,30.2770081-10.3375854,46.5995178-10.9759827v-39.5530701    h-54.1570129C205.2599945,287.1461487,207.966507,304.3456116,212.394989,319.5343933z" opacity="0.3"/><path d="M258.9945068,378.6602783v-59.9685364c-15.2475128,0.6495972-29.9285278,4.2410583-43.4445343,10.5263977    C225.4505005,356.5808105,241.2444916,375.6122742,258.9945068,378.6602783z" opacity="0.3"/><path d="M352.3919983,182.6768036c-8.2954712,8.2789307-17.5632019,15.2229309-27.5237427,20.7855988    c4.9424133,16.4874573,7.8837585,35.3264008,8.3040161,55.5322571H384    C382.7936096,229.5962677,371.0335999,202.9269257,352.3919983,182.6768036z" opacity="0.3"/><path d="M194.8265076,258.9946594c0.4204712-20.2037201,3.361496-39.0426636,8.3029785-55.5285339    c-9.9595184-5.5637207-19.221756-12.5130615-27.5188141-20.7935944    C156.9674683,202.9248047,145.2064056,229.5941315,144,258.9946594H194.8265076z" opacity="0.3"/><path d="M212.480484,208.1808014c-4.4779816,15.259201-7.2174988,32.5594635-7.6429901,50.813858h54.1570129    v-39.8762665C242.7050018,218.482132,226.980484,214.7365265,212.480484,208.1808014z" opacity="0.3"/><path d="M215.6515198,198.5077362c13.4889526,6.2559967,28.1349792,9.8293304,43.3429871,10.4783936V149.340271    C241.3044891,152.377594,225.5585022,171.2928009,215.6515198,198.5077362z" opacity="0.3"/><path d="M203.0435181,324.2602539c-4.8915253-16.4202576-7.7990417-35.1642456-8.2170105-55.2549133H144    c1.2032013,29.3183899,12.8981323,55.9231873,31.4512024,76.1546631    C183.7637329,336.8330688,193.0534973,329.8506775,203.0435181,324.2602539z" opacity="0.3"/><path d="M352.5562744,345.1482544C371.0970764,324.9189453,382.796814,298.316803,384,269.0053406h-50.8277283    c-0.4176025,20.0922546-3.3258667,38.8362732-8.2175903,55.2570496    c9.9626465,5.5749512,19.2330627,12.5306702,27.5269165,20.8240051" opacity="0.3"/><path d="M345.4037476,352.1647949C338.2384033,345,330.2357483,339.009613,321.7045288,334.0447998    c-8.0394592,21.8559875-19.8101196,38.6687927-33.8009949,47.6960144    c21.9594116-4.4341431,41.7449951-14.8570862,57.5812683-29.4917603" opacity="0.3"/><path d="M269.0050049,219.1183929v39.8762665h54.1565857    c-0.4255981-18.2549286-3.1647949-35.5557251-7.6431885-50.8154602    C301.0165405,214.7365265,285.2904968,218.482132,269.0050049,219.1183929z" opacity="0.3"/><path d="M240.0955048,381.7408142c-13.9915009-9.0272217-25.7620087-25.8405457-33.8020172-47.6992188    c-8.5610046,4.9823914-16.585968,11.0042725-23.7708282,18.2042847    C198.3625031,366.8783875,218.138504,377.3071899,240.0955048,381.7408142z" opacity="0.3"/><path d="M312.447998,329.2202759c-13.5178528-6.2858887-28.1995239-9.8789368-43.4429932-10.5290833v59.9690857    C286.7539673,375.6122742,302.5477295,356.5818787,312.447998,329.2202759z" opacity="0.3"/><path d="M269.0050049,269.0053406v39.5530701c16.3175049,0.6383972,32.0739441,4.3967896,46.5987244,10.9776001    c4.4288025-15.1898804,7.1354675-32.3893433,7.5578613-50.5306702H269.0050049z" opacity="0.3"/></g><g><path d="M261.0050049,141.340271v59.6463928c15.2044983-0.6495972,29.8505249-4.2250671,43.3416748-10.4815979    C294.4394531,163.2911987,278.6939697,144.3770599,261.0050049,141.340271z" fill="#FFFFFF"/><path d="M198.3880005,185.6911926c8.0370178-21.7306671,19.7720032-38.4405212,33.7075195-47.4319916    c-21.8750458,4.4176025-41.5890198,14.7818604-57.3989868,29.328537    C181.8650665,174.740799,189.8579712,180.7370605,198.3880005,185.6911926z" fill="#FFFFFF"/><path d="M279.9035339,138.259201c13.9344482,8.9909363,25.669281,25.7002716,33.7071228,47.4288025    c8.5312195-4.9541321,16.5317383-10.939209,23.701355-18.0917358    C321.4997253,153.0453339,301.7834778,142.6773376,279.9035339,138.259201z" fill="#FFFFFF"/><path d="M204.394989,311.5343933c14.5229797-6.5797119,30.2770081-10.3375854,46.5995178-10.9759827v-39.5530701    h-54.1570129C197.2599945,279.1461487,199.966507,296.3456116,204.394989,311.5343933z" fill="#FFFFFF"/><path d="M250.9945068,370.6602783v-59.9685364c-15.2475128,0.6495972-29.9285278,4.2410583-43.4445343,10.5263977    C217.4505005,348.5808105,233.2444763,367.6122742,250.9945068,370.6602783z" fill="#FFFFFF"/><path d="M344.3919983,174.6768036c-8.2954712,8.2789307-17.5632019,15.2229309-27.5237427,20.7855988    c4.9424133,16.4874573,7.8837585,35.3264008,8.3040161,55.5322571H376    C374.7936096,221.5962677,363.0335999,194.9269257,344.3919983,174.6768036z" fill="#FFFFFF"/><path d="M186.8266602,250.9946594c0.4202728-20.2037201,3.3613434-39.0426636,8.3028259-55.5285339    c-9.9593506-5.5637207-19.221756-12.5130615-27.5188141-20.7935944    C148.9674683,194.9248047,137.2064056,221.5941315,136,250.9946594H186.8266602z" fill="#FFFFFF"/><path d="M204.480484,200.1808014c-4.4779816,15.259201-7.2174988,32.5594635-7.6429901,50.813858h54.1570129    v-39.8762665C234.7050171,210.482132,218.980484,206.7365265,204.480484,200.1808014z" fill="#FFFFFF"/><path d="M207.6515198,190.5077362c13.4889526,6.2559967,28.1349792,9.8293304,43.3429871,10.4783936V141.340271    C233.3044739,144.377594,217.5585022,163.2928009,207.6515198,190.5077362z" fill="#FFFFFF"/><path d="M195.0435181,316.2602539c-4.8915253-16.4202576-7.7992554-35.1642456-8.2168579-55.2549133H136    c1.2032013,29.3183899,12.8981323,55.9231873,31.4512024,76.1546631    C175.7637329,328.8330688,185.0533295,321.8506775,195.0435181,316.2602539z" fill="#FFFFFF"/><path d="M344.5562744,337.1482544C363.0970764,316.9189453,374.796814,290.316803,376,261.0053406h-50.8277283    c-0.4176025,20.0922546-3.3258667,38.8362732-8.2175903,55.2570496    c9.9626465,5.5749512,19.2330627,12.5306702,27.5269165,20.8240051" fill="#FFFFFF"/><path d="M337.4037476,344.1647949C330.2384033,337,322.2357483,331.009613,313.7045288,326.0447998    c-8.0394592,21.8559875-19.8100281,38.6687927-33.8009949,47.6960144    c21.9594116-4.4341431,41.7449951-14.8570862,57.5812683-29.4917603" fill="#FFFFFF"/><path d="M261.0050049,211.1183929v39.8762665h54.1565857    c-0.4255981-18.2549286-3.1647949-35.5557251-7.6431885-50.8154602    C293.0164795,206.7365265,277.2904968,210.482132,261.0050049,211.1183929z" fill="#FFFFFF"/><path d="M232.09552,373.7408142c-13.9915161-9.0272217-25.7620239-25.8405457-33.8020325-47.6992188    c-8.5610046,4.9823914-16.5857544,11.0042725-23.7708282,18.2042847    C190.3625031,358.8783875,210.138504,369.3071899,232.09552,373.7408142z" fill="#FFFFFF"/><path d="M304.447998,321.2202759c-13.5180359-6.2858887-28.1995239-9.8789368-43.4429932-10.5290833v59.9690857    C278.7539673,367.6122742,294.5477295,348.5818787,304.447998,321.2202759z" fill="#FFFFFF"/><path d="M261.0050049,261.0053406v39.5530701c16.3175049,0.6383972,32.0739746,4.3967896,46.5987244,10.9776001    c4.4288025-15.1898804,7.1354675-32.3893433,7.5578613-50.5306702H261.0050049z" fill="#FFFFFF"/></g></g></svg>