<svg xmlns="http://www.w3.org/2000/svg" xmlns:xlink="http://www.w3.org/1999/xlink" fill="none" version="1.1" width="18" height="18" viewBox="0 0 18 18"><defs><clipPath id="master_svg0_75_8979"><rect x="0" y="0" width="18" height="18" rx="0"/></clipPath></defs><g clip-path="url(#master_svg0_75_8979)"><g></g><g><path d="M9,17C13.4183,17,17,13.4183,17,9C17,4.58172,13.4183,1,9,1C4.58172,1,1,4.58172,1,9C1,13.4183,4.58172,17,9,17ZM6.5,6.73205L6.5,11.268C6.5,12.0378,7.33333,12.5189,8,12.134L9.9641,11L11.9282,9.86603C12.5949,9.48112,12.5949,8.51887,11.9282,8.13397L9.9641,7L8,5.86602C7.33333,5.48112,6.5,5.96225,6.5,6.73205Z" fill-rule="evenodd" fill="#FFFFFF" fill-opacity="1"/></g></g></svg>