<svg xmlns="http://www.w3.org/2000/svg" xmlns:xlink="http://www.w3.org/1999/xlink" fill="none" version="1.1" width="48" height="48" viewBox="0 0 48 48"><g><g></g><g><g><ellipse cx="23.87368607521057" cy="25.192434549331665" rx="21.47368621826172" ry="21.473684310913086" fill="#C07300" fill-opacity="1"/></g><g><ellipse cx="23.87368607521057" cy="22.80701780319214" rx="21.47368621826172" ry="21.473684310913086" fill="#FAB635" fill-opacity="1"/></g><g transform="matrix(0.7071067690849304,0.7071067690849304,-0.7071067690849304,0.7071067690849304,12.336787943900148,-14.673159604373112)"><g transform="matrix(0.7071067094802856,0.7071067094802856,-0.7071067094802856,0.7071067094802856,29.73233454127231,-23.850506671804823)"><path d="M43.656280755996704,28.737305180511473L48.009790755996704,28.737305180511473L48.009790755996704,23.964845180511475L43.656280755996704,23.964845180511475L43.656280755996704,28.737305180511473Z" fill="#C07300" fill-opacity="1"/></g><g transform="matrix(0.7071067094802856,0.7071067094802856,-0.7071067094802856,0.7071067094802856,28.563821417189644,-23.368207909309348)"><path d="M42.489837884902954,27.567934529266356L46.843347884902954,27.567934529266356L46.84139788490295,22.795474529266357L42.489837884902954,22.795474529266357L42.489837884902954,27.567934529266356Z" fill="#FAFBFF" fill-opacity="1"/></g><g transform="matrix(0.7071067094802856,0.7071067094802856,-0.7071067094802856,0.7071067094802856,14.880808571839111,-17.700732803398694)"><path d="M28.80708146095276,9.112355470657349L28.80708146095276,13.884815470657347L46.66648146095276,13.884815470657347L46.66648146095276,9.112355470657349L28.80708146095276,9.112355470657349Z" fill="#C07300" fill-opacity="1"/></g><g transform="matrix(0.7071067094802856,0.7071067094802856,-0.7071067094802856,0.7071067094802856,13.325197978192136,-17.059387465278974)"><path d="M27.255103588104248,7.555240154266357L27.255103588104248,12.327700154266356L45.11450358810425,12.327700154266356L45.11450358810425,7.555240154266357L27.255103588104248,7.555240154266357Z" fill="#FAFBFF" fill-opacity="1"/></g></g></g></g></svg>