<svg xmlns="http://www.w3.org/2000/svg" xmlns:xlink="http://www.w3.org/1999/xlink" fill="none" version="1.1" width="24" height="24" viewBox="0 0 24 24"><defs><linearGradient x1="0.5" y1="0" x2="0.5" y2="1" id="master_svg0_2_9266"><stop offset="0%" stop-color="#4BAFFE" stop-opacity="1"/><stop offset="100%" stop-color="#1476ED" stop-opacity="1"/></linearGradient></defs><g><g><rect x="0" y="0" width="24" height="24" rx="0" fill="#FFFFFF" fill-opacity="0.009999999776482582" style="mix-blend-mode:passthrough"/></g><g><path d="M0.5,11.5Q0.5,7.35788,3.42894,4.42894Q6.35788,1.5,10.5,1.5Q14.6421,1.5,17.5711,4.42894Q20.5,7.35788,20.5,11.5Q20.5,14.8712,18.5599,17.4387L21.9142,20.7929C22.1955,21.0743,22.3535,21.4558,22.3535,21.8536C22.3535,22.682,21.6819,23.3536,20.8535,23.3536C20.4557,23.3536,20.0741,23.1956,19.7928,22.9143L16.4386,19.56Q13.8711,21.5,10.5,21.5Q6.35788,21.5,3.42894,18.5711Q0.5,15.6421,0.5,11.5Z" fill-rule="evenodd" fill="url(#master_svg0_2_9266)" fill-opacity="1"/></g><g><path d="M13.682195,8.31802Q15.000215,9.636050000000001,15.000215,11.5Q15.000215,11.59849,15.019435,11.69509Q15.038644999999999,11.79169,15.076335,11.88268Q15.114025,11.97368,15.168745000000001,12.05557Q15.223465000000001,12.13746,15.293115,12.20711Q15.362755,12.27675,15.444645000000001,12.33147Q15.526534999999999,12.38619,15.617535,12.42388Q15.708525,12.46157,15.805125,12.48078Q15.901724999999999,12.5,16.000215,12.5Q16.098705,12.5,16.195305,12.48078Q16.291905,12.46157,16.382905,12.42388Q16.473895,12.38619,16.555785,12.33147Q16.637684999999998,12.27675,16.707325,12.20711Q16.776965,12.13746,16.831685,12.05557Q16.886405,11.97368,16.924095,11.88268Q16.961785,11.79169,16.981005,11.69509Q17.000215,11.59849,17.000215,11.5Q17.000215,8.80762,15.096405,6.903811Q13.192595,5,10.500215,5Q9.178464,5,7.969821,5.511215Q7.902315,5.5397680000000005,7.8396930000000005,5.577859Q7.777072,5.61595,7.720674,5.662764Q7.664275,5.709579,7.615306,5.764116Q7.566336,5.818654,7.525842,5.879749Q7.485348,5.940844,7.454195,6.00719049Q7.423042,6.0735369,7.401896,6.143717Q7.38075,6.213897,7.370062,6.28641Q7.359375,6.358923,7.359375,6.432219Q7.359375,6.530711,7.37859,6.627309Q7.397805,6.723908,7.435496,6.814902Q7.473187,6.9058969999999995,7.527905,6.987789Q7.582624,7.06968,7.652268,7.13933Q7.721912,7.20897,7.803805,7.26369Q7.885697,7.31841,7.976692,7.3561Q8.067686,7.39379,8.164285,7.413Q8.2608836,7.43222,8.359375,7.43222Q8.562161,7.43222,8.748929,7.35322Q9.584035,7,10.500215,7Q12.364165,7,13.682195,8.31802Z" fill-rule="evenodd" fill="#FFFFFF" fill-opacity="1"/></g></g></svg>