<svg xmlns="http://www.w3.org/2000/svg" xmlns:xlink="http://www.w3.org/1999/xlink" fill="none" version="1.1" width="24" height="24" viewBox="0 0 24 24"><defs><clipPath id="master_svg0_2_8488"><rect x="0" y="0" width="24" height="24" rx="0"/></clipPath><linearGradient x1="0.5" y1="0" x2="0.5" y2="1" id="master_svg1_2_989"><stop offset="0%" stop-color="#FF7474" stop-opacity="1"/><stop offset="100%" stop-color="#FF2C56" stop-opacity="1"/></linearGradient></defs><g clip-path="url(#master_svg0_2_8488)"><g><rect x="0" y="0" width="24" height="24" rx="0" fill="#FFFFFF" fill-opacity="0.009999999776482582" style="mix-blend-mode:passthrough"/></g><g><g><path d="M4.22182,4.22182Q1,7.44365,1,12Q1,16.5564,4.22182,19.7782Q7.44365,23,12,23Q16.555799999999998,23,19.7774,19.779C19.778,19.7783,19.7783,19.778,19.779,19.7774Q23,16.555799999999998,23,12Q23,7.44365,19.7782,4.22182Q16.5564,1,12,1Q7.44365,1,4.22182,4.22182Z" fill-rule="evenodd" fill="url(#master_svg1_2_989)" fill-opacity="1"/></g><g><g transform="matrix(0.7071067690849304,0.7071067690849304,-0.7071067690849304,0.7071067690849304,7.001184232592735,-7.042353381986416)"><path d="M18.00125484375,5.883717066757202C18.00125484375,5.630776066757202,17.89600484375,5.388194066757202,17.70846484375,5.209337066757202C17.31794484375,4.836887666757202,16.68477484375,4.836887666757202,16.29425484375,5.209337066757202C16.106714843749998,5.388194066757202,16.00146484375,5.6309290667572025,16.00146484375,5.884376066757202L16.00146484375,8.930000066757202L12.955879843750001,8.930000066757202C12.70224084375,8.930000066757202,12.45965884375,9.035360066757203,12.28080184375,9.222890066757202C11.90835244375,9.613420066757202,11.90835244375,10.246580066757202,12.28080184375,10.637110066757202C12.45965884375,10.824640066757201,12.70224084375,10.930000066757202,12.955879843750001,10.930000066757202L16.00146484375,10.930000066757202L16.00146484375,13.976280066757202C16.00146484375,14.229220066757202,16.106714843749998,14.471810066757202,16.29425484375,14.650660066757203C16.68477484375,15.023100066757202,17.31794484375,15.023100066757202,17.70846484375,14.650660066757203C17.89600484375,14.471810066757202,18.00125484375,14.229220066757202,18.00125484375,13.976280066757202L18.00125484375,10.930000066757202L21.047584843750002,10.930000066757202C21.30068484375,10.930000066757202,21.543274843749998,10.824640066757201,21.722124843750002,10.637110066757202C22.09456484375,10.246580066757202,22.09456484375,9.613420066757202,21.722124843750002,9.222890066757202C21.543274843749998,9.035360066757203,21.30068484375,8.930000066757202,21.04774484375,8.930000066757202L18.00125484375,8.930000066757202L18.00125484375,5.883717066757202Z" fill-rule="evenodd" fill="#E5E6EB" fill-opacity="1"/></g></g></g></g></svg>