<svg xmlns="http://www.w3.org/2000/svg" xmlns:xlink="http://www.w3.org/1999/xlink" fill="none" version="1.1" width="24" height="24" viewBox="0 0 24 24"><g><g><rect x="0" y="0" width="24" height="24" rx="12" fill="#FFFFFF" fill-opacity="0.30000001192092896"/></g><g><path d="M7.704,18L15.08,18L15.08,16.736L11.832,16.736C11.24,16.736,10.52,16.8,9.911999999999999,16.848C12.664,14.24,14.52,11.856,14.52,9.504C14.52,7.424,13.192,6.064,11.096,6.064C9.608,6.064,8.584,6.736,7.64,7.776L8.488,8.608C9.144,7.824,9.96,7.248,10.92,7.248C12.376000000000001,7.248,13.08,8.224,13.08,9.568C13.08,11.584,11.384,13.92,7.704,17.136L7.704,18Z" fill="#1D2129" fill-opacity="1"/></g></g></svg>