<svg xmlns="http://www.w3.org/2000/svg" xmlns:xlink="http://www.w3.org/1999/xlink" fill="none" version="1.1" width="32" height="32" viewBox="0 0 32 32"><g><g><rect x="0" y="0" width="32" height="32" rx="16" fill="#FFFFFF" fill-opacity="1"/></g><g><path d="M12.704,22L20.08,22L20.08,20.736L16.832,20.736C16.240000000000002,20.736,15.52,20.8,14.911999999999999,20.848C17.664,18.240000000000002,19.52,15.856,19.52,13.504C19.52,11.424,18.192,10.064,16.096,10.064C14.608,10.064,13.584,10.736,12.64,11.776L13.488,12.608C14.144,11.824,14.96,11.248000000000001,15.92,11.248000000000001C17.376,11.248000000000001,18.08,12.224,18.08,13.568C18.08,15.584,16.384,17.92,12.704,21.136L12.704,22Z" fill="#1D2129" fill-opacity="1"/></g></g></svg>