<svg xmlns="http://www.w3.org/2000/svg" xmlns:xlink="http://www.w3.org/1999/xlink" fill="none" version="1.1" width="24" height="24" viewBox="0 0 24 24"><g><g><rect x="0" y="0" width="24" height="24" rx="12" fill="#FFFFFF" fill-opacity="0.30000001192092896"/></g><g><path d="M11.208,18.208C13.304,18.208,14.984,16.96,14.984,14.864C14.984,13.248,13.879999999999999,12.224,12.504,11.888L12.504,11.808C13.751999999999999,11.376,14.584,10.416,14.584,8.992C14.584,7.136,13.144,6.064,11.16,6.064C9.815999999999999,6.064,8.776,6.656,7.896,7.456L8.68,8.384C9.352,7.712,10.168,7.248,11.112,7.248C12.344000000000001,7.248,13.096,7.984,13.096,9.104C13.096,10.368,12.280000000000001,11.344,9.847999999999999,11.344L9.847999999999999,12.464C12.568,12.464,13.496,13.392,13.496,14.816C13.496,16.16,12.52,16.992,11.112,16.992C9.783999999999999,16.992,8.904,16.352,8.216,15.648L7.464,16.592C8.232,17.44,9.384,18.208,11.208,18.208Z" fill="#1D2129" fill-opacity="1"/></g></g></svg>