<svg xmlns="http://www.w3.org/2000/svg" xmlns:xlink="http://www.w3.org/1999/xlink" fill="none" version="1.1" width="32" height="32" viewBox="0 0 32 32"><g><g><rect x="0" y="0" width="32" height="32" rx="16" fill="#FFFFFF" fill-opacity="1"/></g><g><path d="M16.208,22.208C18.304000000000002,22.208,19.984,20.96,19.984,18.864C19.984,17.247999999999998,18.88,16.224,17.503999999999998,15.888L17.503999999999998,15.808C18.752,15.376,19.584,14.416,19.584,12.992C19.584,11.136,18.144,10.064,16.16,10.064C14.815999999999999,10.064,13.776,10.655999999999999,12.896,11.456L13.68,12.384C14.352,11.712,15.168,11.248000000000001,16.112000000000002,11.248000000000001C17.344,11.248000000000001,18.096,11.984,18.096,13.104C18.096,14.368,17.28,15.344,14.847999999999999,15.344L14.847999999999999,16.464C17.567999999999998,16.464,18.496000000000002,17.392,18.496000000000002,18.816000000000003C18.496000000000002,20.16,17.52,20.992,16.112000000000002,20.992C14.783999999999999,20.992,13.904,20.352,13.216,19.648L12.464,20.592C13.232,21.44,14.384,22.208,16.208,22.208Z" fill="#1D2129" fill-opacity="1"/></g></g></svg>