<svg xmlns="http://www.w3.org/2000/svg" xmlns:xlink="http://www.w3.org/1999/xlink" fill="none" version="1.1" width="24" height="24" viewBox="0 0 24 24"><g><g><rect x="0" y="0" width="24" height="24" rx="12" fill="#FFFFFF" fill-opacity="0.30000001192092896"/></g><g><path d="M11.192,18.208C13.16,18.208,15.032,16.752,15.032,14.192C15.032,11.6,13.432,10.448,11.496,10.448C10.792,10.448,10.264,10.624,9.736,10.912L10.04,7.52L14.456,7.52L14.456,6.272L8.76,6.272L8.376,11.744L9.16,12.24C9.832,11.792,10.328,11.552,11.112,11.552C12.584,11.552,13.544,12.544,13.544,14.224C13.544,15.936,12.440000000000001,16.992,11.048,16.992C9.688,16.992,8.824,16.368,8.168,15.696L7.432,16.656C8.232,17.44,9.352,18.208,11.192,18.208Z" fill="#1D2129" fill-opacity="1"/></g></g></svg>