<svg xmlns="http://www.w3.org/2000/svg" xmlns:xlink="http://www.w3.org/1999/xlink" fill="none" version="1.1" width="96" height="96" viewBox="0 0 96 96"><defs><linearGradient x1="0.5" y1="0" x2="0.5" y2="1" id="master_svg0_25_09636"><stop offset="0%" stop-color="#FF7474" stop-opacity="1"/><stop offset="100%" stop-color="#FF2C56" stop-opacity="1"/></linearGradient><mask id="master_svg1_85_9206" style="mask-type:alpha" maskUnits="objectBoundingBox"><g><rect x="22" y="22" width="52" height="52" rx="0" fill="#FFFFFF" fill-opacity="1"/></g></mask></defs><g><rect x="0" y="0" width="96" height="96" rx="24" fill="url(#master_svg0_25_09636)" fill-opacity="1"/><g><g style="opacity:0.800000011920929;"><rect x="22" y="22" width="52" height="52" rx="0" fill="#FFFFFF" fill-opacity="0.009999999776482582"/></g><g mask="url(#master_svg1_85_9206)"><g><g><g><path d="M36.77627572441101,53.4435L37.99987572441101,54.6671L37.99987572441101,28C37.99987572441101,24.68629,40.686175724411015,22,43.99987572441101,22C47.31357572441101,22,49.99987572441101,24.68629,49.99987572441101,28L49.99987572441101,39.9481L66.53387572441102,43.1691C71.10297572441101,44.059200000000004,73.95017572441101,48.6472,72.71947572441101,53.1366L68.00817572441102,70.3219C67.412675724411,72.4941,65.438375724411,74,63.18607572441101,74L42.43387572441101,74C40.91897572441101,74,39.57167572441101,73.3295,38.65837572441101,72.2781C38.55587572441101,72.18860000000001,38.45577572441101,72.0951,38.35807572441101,71.9974L23.516125724411012,57.1554C22.637638724411012,56.2769,22.63764372441101,54.8526,23.516136724411012,53.974199999999996L24.046995724411012,53.4433C27.56184572441101,49.9281,33.261075724411015,49.9283,36.77627572441101,53.4435Z" fill-rule="evenodd" fill="#FFFFFF" fill-opacity="1"/></g></g></g></g></g></g></svg>