<svg xmlns="http://www.w3.org/2000/svg" xmlns:xlink="http://www.w3.org/1999/xlink" fill="none" version="1.1" width="96" height="96" viewBox="0 0 96 96"><defs><linearGradient x1="0.5" y1="0" x2="0.5" y2="1" id="master_svg0_25_09636"><stop offset="0%" stop-color="#FF7474" stop-opacity="1"/><stop offset="100%" stop-color="#FF2C56" stop-opacity="1"/></linearGradient><mask id="master_svg1_85_9234" style="mask-type:alpha" maskUnits="objectBoundingBox"><g><rect x="22" y="22" width="52" height="52" rx="0" fill="#FFFFFF" fill-opacity="1"/></g></mask></defs><g><rect x="0" y="0" width="96" height="96" rx="24" fill="url(#master_svg0_25_09636)" fill-opacity="1"/><g mask="url(#master_svg1_85_9234)"><g><path d="M66.4142,54.8283484375C65.6332,55.6094484375,64.3668,55.6094484375,63.5858,54.8283484375C62.80474,54.0473484375,62.80474,52.7809484375,63.5858,51.9999484375L65.0853,50.500378437500004L55,50.500378437500004C53.89543,50.500378437500004,53,49.6049484375,53,48.500378437500004C53,47.3958084375,53.89543,46.500378437500004,55,46.500378437500004L65.1574,46.500378437500004L63.5858,44.9288584375C62.80474,44.147808437500004,62.80474,42.8814784375,63.5858,42.1004324375C64.3668,41.3193924375,65.6331,41.3193824375,66.4142,42.1004324375L66.4156,42.1017884375L71.2657,46.9517584375C71.7139,47.3185284375,72,47.8760484375,72,48.500378437500004C72,49.230858437500004,71.6084,49.8698684375,71.0236,50.2189184375L66.4142,54.8283484375Z" fill-rule="evenodd" fill="#FFFFFF" fill-opacity="1"/></g><g style="opacity:0.6000000238418579;"><path d="M46.72289,67.00861570968628C44.62634,66.86301570968628,43,65.11981570968628,43,63.01821570968628L43,32.98196570968628C43,30.88036570968628,44.62634,29.13716570968628,46.72289,28.99157270968628L56.722899999999996,28.29712789968628C59.0356,28.13652570968628,61,29.96927570968628,61,32.28751570968628L61,45.00051570968628L55,45.00051570968628Q53.5503,45.00051570968628,52.525130000000004,46.02561570968628Q51.5,47.05071570968628,51.5,48.50051570968628Q51.5,49.950215709686276,52.525130000000004,50.97531570968628Q53.5503,52.00051570968628,55,52.00051570968628L61,52.00051570968628L61,63.71271570968628C61,66.03091570968627,59.0356,67.86371570968629,56.722899999999996,67.70311570968627L46.72289,67.00861570968628ZM61,46.50051570968628L61,50.50051570968628L55,50.50051570968628C53.8954,50.50051570968628,53,49.60501570968628,53,48.50051570968628C53,47.39591570968628,53.8954,46.50051570968628,55,46.50051570968628L61,46.50051570968628Z" fill-rule="evenodd" fill="#FFFFFF" fill-opacity="1"/></g><g><path d="M27.103740000000002,68.45835468749999C25.852038,68.0665546875,25,66.90695468749999,25,65.59535468749999L25,30.404604687499997C25,29.0930046875,25.852038,27.9334646875,27.103740000000002,27.5416146875L44.1037,22.2197336875C46.035799999999995,21.6148886875,48,23.0581706875,48,25.0827246875L48,70.91725468749999C48,72.9418546875,46.035799999999995,74.3851546875,44.1037,73.78025468749999L27.103740000000002,68.45835468749999ZM40,43.9999546875C38.8954,43.9999546875,38,44.8954546875,38,45.9999546875L38,49.9999546875C38,51.1045546875,38.8954,51.9999546875,40,51.9999546875C41.104600000000005,51.9999546875,42,51.1045546875,42,49.9999546875L42,45.9999546875C42,44.8954546875,41.104600000000005,43.9999546875,40,43.9999546875Z" fill-rule="evenodd" fill="#FFFFFF" fill-opacity="1"/></g></g></g></svg>