<svg xmlns="http://www.w3.org/2000/svg" xmlns:xlink="http://www.w3.org/1999/xlink" fill="none" version="1.1" width="96" height="96" viewBox="0 0 96 96"><defs><linearGradient x1="0.5" y1="0" x2="0.5" y2="1" id="master_svg0_25_03955"><stop offset="0%" stop-color="#FFBA4F" stop-opacity="1"/><stop offset="100%" stop-color="#FF811C" stop-opacity="1"/></linearGradient><mask id="master_svg1_85_9165" style="mask-type:alpha" maskUnits="objectBoundingBox"><g><rect x="22" y="22" width="52" height="52" rx="0" fill="#FFFFFF" fill-opacity="1"/></g></mask></defs><g><rect x="0" y="0" width="96" height="96" rx="24" fill="url(#master_svg0_25_03955)" fill-opacity="1"/><g><g style="opacity:0.800000011920929;"><rect x="22" y="22" width="52" height="52" rx="0" fill="#FFFFFF" fill-opacity="0.009999999776482582"/></g><g mask="url(#master_svg1_85_9165)"><g><g><path d="M24,39.99981089553833L24,29.99986089553833C24,26.68615089553833,26.68629,23.99985889553833,30,23.99985889553833L40,23.99985889553833C43.3137,23.99985889553833,46,26.68615089553833,46,29.99986089553833L46,39.99981089553833C46,43.31361089553833,43.3137,45.99981089553833,40,45.99981089553833L30,45.99981089553833C26.68629,45.99981089553833,24,43.31361089553833,24,39.99981089553833ZM51.1005,30.89935089553833L56.7574,25.24250089553833C59.1005,22.89935389553833,62.8995,22.89935389553833,65.24260000000001,25.24250089553833L70.8995,30.89935089553833C73.24260000000001,33.24250089553833,73.24260000000001,37.04151089553833,70.8995,39.38461089553833L65.24260000000001,45.04151089553833C62.8995,47.38461089553833,59.1005,47.38461089553833,56.7574,45.04151089553833L51.1005,39.38461089553833C48.757400000000004,37.04151089553833,48.757400000000004,33.24250089553833,51.1005,30.89935089553833ZM24,65.99981089553833L24,55.99981089553833C24,52.686110895538334,26.68629,49.99981089553833,30,49.99981089553833L40,49.99981089553833C43.3137,49.99981089553833,46,52.686110895538334,46,55.99981089553833L46,65.99981089553833C46,69.31361089553833,43.3137,71.99981089553833,40,71.99981089553833L30,71.99981089553833C26.68629,71.99981089553833,24,69.31361089553833,24,65.99981089553833ZM50,65.99981089553833L50,55.99981089553833C50,52.686110895538334,52.6863,49.99981089553833,56,49.99981089553833L66,49.99981089553833C69.3137,49.99981089553833,72,52.686110895538334,72,55.99981089553833L72,65.99981089553833C72,69.31361089553833,69.3137,71.99981089553833,66,71.99981089553833L56,71.99981089553833C52.6863,71.99981089553833,50,69.31361089553833,50,65.99981089553833Z" fill="#FFFFFF" fill-opacity="1"/></g></g></g></g></g></svg>