<svg xmlns="http://www.w3.org/2000/svg" xmlns:xlink="http://www.w3.org/1999/xlink" fill="none" version="1.1" width="64" height="64" viewBox="0 0 64 64"><defs><linearGradient x1="0.5" y1="0" x2="0.5" y2="1" id="master_svg0_2_0254"><stop offset="0%" stop-color="#4DB1FF" stop-opacity="1"/><stop offset="100%" stop-color="#1375ED" stop-opacity="1"/></linearGradient></defs><g><g><ellipse cx="32" cy="32" rx="32" ry="32" fill="url(#master_svg0_2_0254)" fill-opacity="1"/></g><g><g><rect x="13.99998950958252" y="14" width="36" height="36" rx="0" fill="#FFFFFF" fill-opacity="0.009999999776482582" style="mix-blend-mode:passthrough"/></g><g transform="matrix(0,1,-1,0,57.67853498458862,-14.250120639801025)"><path d="M31.721667812194823,21.7142071723938L33.84300781219483,23.8355271723938L44.12871781219482,34.121207172393795Q44.33765781219482,34.3302071723938,44.583327812194824,34.494307172393796Q44.829007812194824,34.6585071723938,45.10198781219482,34.7716071723938Q45.37497781219483,34.8846071723938,45.664767812194825,34.9423071723938Q45.954567812194824,34.9999071723938,46.25002781219482,34.9999071723938Q46.54552781219483,34.9999071723938,46.835327812194826,34.9423071723938Q47.125127812194826,34.8846071723938,47.39812781219482,34.7716071723938Q47.67102781219482,34.6585071723938,47.91672781219482,34.494307172393796Q48.16242781219482,34.3302071723938,48.37132781219482,34.121207172393795L58.657027812194826,23.8355271723938L60.77842781219482,21.7142071723938L56.53572781219482,17.471547172393798L54.41442781219482,19.592887172393798L46.25002781219482,27.7572771723938L38.08564781219482,19.592887172393798L35.964327812194824,17.471547172393798L31.721667812194823,21.7142071723938Z" fill-rule="evenodd" fill="#FFFFFF" fill-opacity="1" style="mix-blend-mode:passthrough"/></g></g></g></svg>