<svg xmlns="http://www.w3.org/2000/svg" xmlns:xlink="http://www.w3.org/1999/xlink" fill="none" version="1.1" width="64" height="64" viewBox="0 0 64 64"><defs><linearGradient x1="0.5" y1="0" x2="0.5" y2="1" id="master_svg0_2_0254"><stop offset="0%" stop-color="#4DB1FF" stop-opacity="1"/><stop offset="100%" stop-color="#1375ED" stop-opacity="1"/></linearGradient></defs><g><g><ellipse cx="32" cy="32" rx="32" ry="32" fill="url(#master_svg0_2_0254)" fill-opacity="1"/></g><g><g><rect x="14" y="14" width="36" height="36" rx="0" fill="#FFFFFF" fill-opacity="0.009999999776482582" style="mix-blend-mode:passthrough"/></g><g></g><g><path d="M47.743700000000004,26.558799999999998L33.743700000000004,16.5588Q33.649,16.49117,33.5494,16.43108Q33.449799999999996,16.37098,33.3458,16.31879Q33.2418,16.26659,33.134100000000004,16.22261Q33.0263,16.17862,32.9155,16.14311Q32.8047,16.1076,32.6915,16.08078Q32.5783,16.05396,32.463300000000004,16.035989999999998Q32.3484,16.01802,32.2324,16.00901Q32.1164,16,32,16Q31.8836,16,31.7676,16.00901Q31.651600000000002,16.01802,31.5367,16.035989999999998Q31.4217,16.05396,31.308500000000002,16.08078Q31.1953,16.1076,31.0845,16.14311Q30.9737,16.17862,30.8659,16.22261Q30.758200000000002,16.26659,30.6542,16.31879Q30.5502,16.37098,30.4506,16.43108Q30.351,16.49117,30.2563,16.5588L16.25629,26.558799999999998Q16.11108,26.66251,15.9792,26.78271Q15.84732,26.9029,15.73061,27.03789Q15.61391,27.17287,15.51403,27.320729999999998Q15.41415,27.46859,15.3325,27.62726Q15.25085,27.78592,15.18858,27.953139999999998Q15.12631,28.120359999999998,15.08431,28.293779999999998Q15.042300000000001,28.4672,15.02115,28.644379999999998Q15,28.821559999999998,15,29L15,44Q15,44.147400000000005,15.01445,44.2941Q15.02889,44.4407,15.05764,44.585300000000004Q15.0864,44.7298,15.12918,44.8709Q15.17196,45.0119,15.22836,45.147999999999996Q15.28476,45.2842,15.35424,45.4142Q15.42371,45.544200000000004,15.50559,45.6667Q15.58747,45.7893,15.68097,45.9032Q15.77447,46.0171,15.87868,46.121300000000005Q15.98289,46.2255,16.09682,46.319Q16.21075,46.4125,16.33329,46.4944Q16.45583,46.5763,16.58581,46.6458Q16.71579,46.715199999999996,16.85195,46.7716Q16.98811,46.828,17.129146,46.8708Q17.27018,46.9136,17.414729,46.9424Q17.559278,46.9711,17.705949,46.985600000000005Q17.852619,47,18,47L46,47Q46.147400000000005,47,46.2941,46.985600000000005Q46.4407,46.9711,46.585300000000004,46.9424Q46.7298,46.9136,46.8709,46.8708Q47.0119,46.828,47.147999999999996,46.7716Q47.2842,46.715199999999996,47.4142,46.6458Q47.544200000000004,46.5763,47.6667,46.4944Q47.7893,46.4125,47.9032,46.319Q48.0171,46.2255,48.121300000000005,46.121300000000005Q48.2255,46.0171,48.319,45.9032Q48.4125,45.7893,48.4944,45.6667Q48.5763,45.544200000000004,48.6458,45.4142Q48.715199999999996,45.2842,48.7716,45.147999999999996Q48.828,45.0119,48.8708,44.8709Q48.9136,44.7298,48.9424,44.585300000000004Q48.9711,44.4407,48.985600000000005,44.2941Q49,44.147400000000005,49,44L49,29Q49,28.821559999999998,48.9788,28.644379999999998Q48.9577,28.4672,48.9157,28.293779999999998Q48.8737,28.120359999999998,48.8114,27.953139999999998Q48.7492,27.78592,48.667500000000004,27.62726Q48.585899999999995,27.46859,48.486000000000004,27.320729999999998Q48.3861,27.17287,48.269400000000005,27.03789Q48.152699999999996,26.9029,48.0208,26.78271Q47.8889,26.66251,47.743700000000004,26.558799999999998ZM32,22.68671L21,30.5439L21,41L43,41L43,30.5439L32,22.68671Z" fill-rule="evenodd" fill="#FFFFFF" fill-opacity="1" style="mix-blend-mode:passthrough"/></g><g><path d="M28,37L28,41L36,41L36,37C36,34.79086,34.20914,33,32,33C29.79086,33,28,34.79086,28,37Z" fill="#FFFFFF" fill-opacity="1"/></g></g></g></svg>