<svg xmlns="http://www.w3.org/2000/svg" xmlns:xlink="http://www.w3.org/1999/xlink" fill="none" version="1.1" width="96" height="96" viewBox="0 0 96 96"><defs><linearGradient x1="0.5" y1="0" x2="0.5" y2="1" id="master_svg0_25_04244"><stop offset="0%" stop-color="#4DB1FF" stop-opacity="1"/><stop offset="100%" stop-color="#1375ED" stop-opacity="1"/></linearGradient></defs><g><rect x="0" y="0" width="96" height="96" rx="24" fill="url(#master_svg0_25_04244)" fill-opacity="1"/><g><g><g><rect x="22" y="22" width="52" height="52" rx="0" fill="#FFFFFF" fill-opacity="0.009999999776482582" style="mix-blend-mode:passthrough"/></g><g><path d="M50.82847578125,24.4137575L55.91427578125,29.4995475L62.49997578125,29.4995475Q64.15687578125,29.4995475,65.32847578125,30.6711175Q66.50007578124999,31.8426875,66.50007578124999,33.499587500000004L66.50007578124999,40.0852875L71.58577578124999,45.1710875Q72.75737578125,46.3426875,72.75737578125,47.999587500000004Q72.75737578125,49.6563875,71.58577578124999,50.8279875L66.50007578124999,55.9137875L66.50007578124999,62.4994875Q66.50007578124999,64.1563875,65.32847578125,65.3279875Q64.15687578125,66.49958749999999,62.50007578125,66.49958749999999L55.91427578125,66.49958749999999L50.82847578125,71.58528749999999Q49.65687578125,72.7568875,48.000075781250004,72.7568875Q46.34317578125,72.7568875,45.17157578125,71.58528749999999L40.08577578125,66.49958749999999L33.500075781250004,66.49958749999999Q31.84317578125,66.49958749999999,30.67160578125,65.3279875Q29.50003578125,64.1563875,29.50003578125,62.4995875L29.50003578125,55.9137875L24.41424578125,50.8279875Q23.24267578125,49.6563875,23.24267578125,47.999587500000004Q23.24267578125,46.3426875,24.41424578125,45.1710875L29.50003578125,40.0852875L29.50003578125,33.499587500000004Q29.50003578125,31.8426875,30.67160578125,30.6711175Q31.84317578125,29.4995475,33.500075781250004,29.4995475L40.08577578125,29.4995475L45.17157578125,24.4137575Q46.34317578125,23.2421875,48.000075781250004,23.2421875Q49.65687578125,23.2421875,50.82847578125,24.4137575ZM47.99997578125,55.4999875C52.14217578125,55.4999875,55.49997578125,52.1420875,55.49997578125,47.9999875C55.49997578125,43.857887500000004,52.14217578125,40.4999875,47.99997578125,40.4999875C43.85787578125,40.4999875,40.49997578125,43.857887500000004,40.49997578125,47.9999875C40.49997578125,52.1420875,43.85787578125,55.4999875,47.99997578125,55.4999875Z" fill-rule="evenodd" fill="#FFFFFF" fill-opacity="1" style="mix-blend-mode:passthrough"/></g></g></g></g></svg>