<svg xmlns="http://www.w3.org/2000/svg" xmlns:xlink="http://www.w3.org/1999/xlink" fill="none" version="1.1" width="96" height="96" viewBox="0 0 96 96"><defs><linearGradient x1="0.5" y1="0" x2="0.5" y2="1" id="master_svg0_61_03353"><stop offset="0%" stop-color="#FFFFFF" stop-opacity="1"/><stop offset="100%" stop-color="#E0E0E0" stop-opacity="1"/></linearGradient><linearGradient x1="0.5" y1="0" x2="0.5" y2="1" id="master_svg1_84_00117"><stop offset="0%" stop-color="#36E18D" stop-opacity="0.8999999761581421"/><stop offset="100%" stop-color="#069D6C" stop-opacity="0.8999999761581421"/></linearGradient></defs><g><rect x="0" y="0" width="96" height="96" rx="24" fill="url(#master_svg0_61_03353)" fill-opacity="1"/><g><g><g><rect x="30" y="30" width="36" height="36" rx="0" fill="#FFFFFF" fill-opacity="0" style="mix-blend-mode:passthrough"/></g><g><path d="M48,74C62.3594,74,74,62.3594,74,48C74,33.6406,62.3594,22,48,22C33.6406,22,22,33.6406,22,48C22,62.3594,33.6406,74,48,74ZM45.0964,60.2484C42.4313,61.8884,39,59.971,39,56.8417L39,39.1583C39,36.028999999999996,42.4313,34.111599999999996,45.0964,35.751599999999996L59.4642,44.5934C62.0024,46.1553,62.0024,49.8447,59.4642,51.4066L45.0964,60.2484Z" fill-rule="evenodd" fill="url(#master_svg1_84_00117)" fill-opacity="1"/></g></g></g></g></svg>